<?xml version="1.0" encoding="UTF-8"?>
<svg width="40px" height="40px" viewBox="0 0 40 40" version="1.1" xmlns="http://www.w3.org/2000/svg" xmlns:xlink="http://www.w3.org/1999/xlink">
    <!-- Generator: Sketch 59 (86127) - https://sketch.com -->
    <title>tag/active/film</title>
    <desc>Created with Sketch.</desc>
    <g id="tag/active/film" stroke="none" stroke-width="1" fill="none" fill-rule="evenodd">
        <polygon id="Path-5" fill="#B6DDFC" points="21.9614158 10.4215931 11.4857386 20.6295733 26.7758884 20.6295733 27.371546 30.0062992 12.2904833 30.0062992 11.4857386 20.6295733 9.37154595 17.3228795 19.5331859 8.00629924"></polygon>
        <path d="M22.476037,10.4105669 L21.3928003,9.35577388 C20.6200406,8.60330538 19.3898059,8.59914427 18.6119737,9.34636809 L10.8752369,16.7786575 C10.0786728,17.543876 10.0532623,18.809951 10.8184809,19.6065151 L10.8774476,19.6653915 L11.824035,20.5719463 L11.824035,28.0062992 C11.824035,29.1108687 12.7194655,30.0062992 13.824035,30.0062992 L25.371546,30.0062992 C26.4761155,30.0062992 27.371546,29.1108687 27.371546,28.0062992 L27.371546,20.5719463 L20.0069355,20.5719463" id="Path" stroke="#000000" stroke-width="2" stroke-linecap="round" stroke-linejoin="round"></path>
    </g>
</svg>